<svg width="589" height="273" viewBox="0 0 589 273" fill="none" xmlns="http://www.w3.org/2000/svg">
<rect x="41.3378" y="1" width="502.222" height="271" fill="#9FBCE8" stroke="black" stroke-width="2"/>
<rect x="41.3378" y="197.646" width="502.222" height="74.3536" fill="#459B4F" stroke="black" stroke-width="2"/>
<circle cx="157.389" cy="87.5184" r="53.3839" fill="#F1CB55" stroke="black" stroke-width="2"/>
<circle cx="151.433" cy="83.9706" r="1.89053" fill="black"/>
<circle cx="162.776" cy="83.9706" r="1.89053" fill="black"/>
<path d="M141.98 88.697C146.962 91.5503 159.986 95.5449 172.229 88.697" stroke="black" stroke-width="2" stroke-linecap="round"/>
<path d="M131.548 271.454C137.237 223.207 86.0851 212.429 61.1949 212.429L57.3851 218.075C78.9736 218.075 129.262 222.437 126.468 271.454H131.548Z" fill="#297531" stroke="black" stroke-width="2"/>
<rect x="55.1204" y="160.546" width="21.2738" height="95.8002" rx="10.6369" transform="rotate(10.2617 55.1204 160.546)" fill="#F8B9B7" stroke="black" stroke-width="2"/>
<rect x="105.817" y="207.826" width="21.2738" height="95.8002" rx="10.6369" transform="rotate(100.262 105.817 207.826)" fill="#F8B9B7" stroke="black" stroke-width="2"/>
<rect x="92.1658" y="171.523" width="21.2738" height="101.706" rx="10.6369" transform="rotate(55.2617 92.1658 171.523)" fill="#F8B9B7" stroke="black" stroke-width="2"/>
<rect x="18.9103" y="173.686" width="21.2738" height="101.706" rx="10.6369" transform="rotate(-34.7383 18.9103 173.686)" fill="#F8B9B7" stroke="black" stroke-width="2"/>
<circle cx="56.3703" cy="209.45" r="31.1344" transform="rotate(10.2617 56.3703 209.45)" fill="#FFF85A" stroke="black" stroke-width="2"/>
<circle cx="53.1122" cy="210.657" r="1.13121" fill="black"/>
<circle cx="59.9002" cy="210.657" r="1.13121" fill="black"/>
<path d="M47.4561 213.485C50.4367 215.192 58.2295 217.582 65.5554 213.485" stroke="black" stroke-width="2" stroke-linecap="round"/>
<path d="M162.754 192.198C162.847 205.483 155.387 233.354 124.796 238.557C123.355 225.889 128.928 198.884 162.754 192.198Z" fill="#297531" stroke="black" stroke-width="2"/>
<path d="M474.658 271.605C468.812 222.539 510.152 189.046 531.553 178.432H537.556C510.413 196.44 477.007 221.756 479.877 271.605H474.658Z" fill="#297531" stroke="black" stroke-width="2"/>
<rect x="530.054" y="125.049" width="21.8456" height="98.2031" rx="10.9228" transform="rotate(17.3073 530.054 125.049)" fill="#F3EFDD" stroke="black" stroke-width="2"/>
<rect x="575.71" y="179.511" width="21.8456" height="98.2031" rx="10.9228" transform="rotate(107.307 575.71 179.511)" fill="#F3EFDD" stroke="black" stroke-width="2"/>
<rect x="566.37" y="140.865" width="21.8456" height="104.254" rx="10.9228" transform="rotate(62.3073 566.37 140.865)" fill="#F3EFDD" stroke="black" stroke-width="2"/>
<rect x="491.566" y="133.881" width="21.8456" height="104.254" rx="10.9228" transform="rotate(-27.6927 491.566 133.881)" fill="#F3EFDD" stroke="black" stroke-width="2"/>
<circle cx="525.195" cy="174.965" r="31.9239" transform="rotate(17.3073 525.195 174.965)" fill="#FFF85A" stroke="black" stroke-width="2"/>
<circle cx="521.456" cy="176.193" r="1.159" fill="black"/>
<circle cx="528.411" cy="176.193" r="1.159" fill="black"/>
<path d="M515.661 179.091C518.715 180.84 526.699 183.289 534.205 179.091" stroke="black" stroke-width="2" stroke-linecap="round"/>
<path d="M439.662 186.871C439.566 200.482 447.21 229.038 478.552 234.368C480.029 221.39 474.319 193.721 439.662 186.871Z" fill="#297531" stroke="black" stroke-width="2"/>
<mask id="path-27-inside-1" fill="white">
<path fill-rule="evenodd" clip-rule="evenodd" d="M233.354 103.279C233.373 102.95 233.383 102.618 233.383 102.285C233.383 92.7372 225.643 84.9973 216.095 84.9973C206.547 84.9973 198.807 92.7372 198.807 102.285C189.26 102.285 181.52 110.025 181.52 119.572C181.52 129.12 189.26 136.86 198.807 136.86C202.031 136.86 205.049 135.978 207.632 134.441C210.752 138.949 215.96 141.902 221.857 141.902C226.917 141.902 231.469 139.729 234.63 136.265C236.07 136.653 237.583 136.86 239.145 136.86C248.693 136.86 256.433 129.12 256.433 119.572C256.433 110.025 248.693 102.285 239.145 102.285C237.114 102.285 235.165 102.635 233.354 103.279Z"/>
</mask>
<path fill-rule="evenodd" clip-rule="evenodd" d="M233.354 103.279C233.373 102.95 233.383 102.618 233.383 102.285C233.383 92.7372 225.643 84.9973 216.095 84.9973C206.547 84.9973 198.807 92.7372 198.807 102.285C189.26 102.285 181.52 110.025 181.52 119.572C181.52 129.12 189.26 136.86 198.807 136.86C202.031 136.86 205.049 135.978 207.632 134.441C210.752 138.949 215.96 141.902 221.857 141.902C226.917 141.902 231.469 139.729 234.63 136.265C236.07 136.653 237.583 136.86 239.145 136.86C248.693 136.86 256.433 129.12 256.433 119.572C256.433 110.025 248.693 102.285 239.145 102.285C237.114 102.285 235.165 102.635 233.354 103.279Z" fill="white"/>
<path d="M233.354 103.279L231.358 103.165L231.187 106.171L234.024 105.163L233.354 103.279ZM198.807 102.285L198.807 104.285L200.807 104.285L200.807 102.285L198.807 102.285ZM207.632 134.441L209.277 133.303L208.214 131.768L206.61 132.722L207.632 134.441ZM234.63 136.265L235.151 134.334L233.975 134.016L233.153 134.916L234.63 136.265ZM235.351 103.392C235.372 103.025 235.383 102.656 235.383 102.285H231.383C231.383 102.581 231.374 102.874 231.358 103.165L235.351 103.392ZM235.383 102.285C235.383 91.6327 226.747 82.9973 216.095 82.9973V86.9973C224.538 86.9973 231.383 93.8418 231.383 102.285H235.383ZM216.095 82.9973C205.443 82.9973 196.807 91.6326 196.807 102.285L200.807 102.285C200.807 93.8418 207.652 86.9973 216.095 86.9973V82.9973ZM198.807 100.285C188.155 100.285 179.52 108.92 179.52 119.572H183.52C183.52 111.129 190.364 104.285 198.807 104.285L198.807 100.285ZM179.52 119.572C179.52 130.225 188.155 138.86 198.807 138.86V134.86C190.364 134.86 183.52 128.016 183.52 119.572H179.52ZM198.807 138.86C202.401 138.86 205.771 137.875 208.655 136.16L206.61 132.722C204.327 134.08 201.661 134.86 198.807 134.86V138.86ZM205.988 135.579C209.465 140.604 215.276 143.902 221.857 143.902V139.902C216.644 139.902 212.039 137.294 209.277 133.303L205.988 135.579ZM221.857 143.902C227.502 143.902 232.583 141.475 236.108 137.613L233.153 134.916C230.355 137.983 226.332 139.902 221.857 139.902V143.902ZM239.145 134.86C237.761 134.86 236.422 134.677 235.151 134.334L234.109 138.196C235.717 138.629 237.406 138.86 239.145 138.86V134.86ZM254.433 119.572C254.433 128.016 247.588 134.86 239.145 134.86V138.86C249.797 138.86 258.433 130.225 258.433 119.572H254.433ZM239.145 104.285C247.588 104.285 254.433 111.129 254.433 119.572H258.433C258.433 108.92 249.797 100.285 239.145 100.285V104.285ZM234.024 105.163C235.623 104.595 237.345 104.285 239.145 104.285V100.285C236.883 100.285 234.707 100.675 232.685 101.394L234.024 105.163Z" fill="black" mask="url(#path-27-inside-1)"/>
<mask id="path-29-inside-2" fill="white">
<path fill-rule="evenodd" clip-rule="evenodd" d="M536.636 42.4988C536.636 42.4988 536.636 42.4988 536.636 42.4988C546.184 42.4988 553.924 50.2387 553.924 59.7864C553.924 69.3341 546.184 77.074 536.636 77.074C535.074 77.074 533.56 76.8668 532.121 76.4785C528.96 79.9427 524.408 82.1162 519.348 82.1162C513.229 82.1162 507.852 78.9366 504.779 74.1394C502.629 75.0996 500.246 75.6334 497.739 75.6334C488.191 75.6334 480.451 67.8934 480.451 58.3458C480.451 48.7981 488.191 41.0582 497.739 41.0582C499.239 41.0582 500.695 41.2493 502.083 41.6086C502.546 32.4746 510.099 25.2112 519.348 25.2112C528.896 25.2112 536.636 32.9511 536.636 42.4988Z"/>
</mask>
<path fill-rule="evenodd" clip-rule="evenodd" d="M536.636 42.4988C536.636 42.4988 536.636 42.4988 536.636 42.4988C546.184 42.4988 553.924 50.2387 553.924 59.7864C553.924 69.3341 546.184 77.074 536.636 77.074C535.074 77.074 533.56 76.8668 532.121 76.4785C528.96 79.9427 524.408 82.1162 519.348 82.1162C513.229 82.1162 507.852 78.9366 504.779 74.1394C502.629 75.0996 500.246 75.6334 497.739 75.6334C488.191 75.6334 480.451 67.8934 480.451 58.3458C480.451 48.7981 488.191 41.0582 497.739 41.0582C499.239 41.0582 500.695 41.2493 502.083 41.6086C502.546 32.4746 510.099 25.2112 519.348 25.2112C528.896 25.2112 536.636 32.9511 536.636 42.4988Z" fill="white"/>
<path d="M536.636 42.4988H534.636V44.4988H536.636V42.4988ZM532.121 76.4785L532.642 74.5475L531.465 74.23L530.644 75.1303L532.121 76.4785ZM504.779 74.1394L506.464 73.0608L505.536 71.6115L503.964 72.3131L504.779 74.1394ZM502.083 41.6086L501.582 43.5448L503.956 44.1593L504.08 41.7099L502.083 41.6086ZM536.636 44.4988C536.598 44.4988 536.565 44.4977 536.537 44.4964C536.51 44.495 536.486 44.4932 536.468 44.4917C536.449 44.4902 536.435 44.4887 536.426 44.4878C536.422 44.4873 536.418 44.4869 536.416 44.4866C536.414 44.4864 536.412 44.4862 536.412 44.4863C536.412 44.4863 536.412 44.4863 536.412 44.4863C536.412 44.4863 536.412 44.4863 536.412 44.4863C536.412 44.4863 536.412 44.4863 536.412 44.4863C536.412 44.4863 536.412 44.4863 536.412 44.4863C536.413 44.4863 536.413 44.4863 536.413 44.4864C536.414 44.4864 536.415 44.4865 536.416 44.4866C536.418 44.4869 536.422 44.4873 536.426 44.4878C536.435 44.4887 536.45 44.4902 536.468 44.4917C536.486 44.4933 536.51 44.495 536.538 44.4964C536.565 44.4978 536.599 44.4988 536.636 44.4988V40.4988C536.673 40.4988 536.706 40.4998 536.734 40.5012C536.762 40.5026 536.786 40.5043 536.804 40.5059C536.822 40.5074 536.837 40.5089 536.846 40.5098C536.85 40.5103 536.854 40.5107 536.856 40.5109C536.858 40.5112 536.86 40.5114 536.859 40.5113C536.859 40.5113 536.859 40.5113 536.859 40.5113C536.859 40.5113 536.859 40.5113 536.859 40.5113C536.859 40.5113 536.859 40.5113 536.859 40.5113C536.859 40.5113 536.859 40.5113 536.859 40.5113C536.859 40.5113 536.859 40.5113 536.859 40.5112C536.858 40.5112 536.857 40.5111 536.856 40.5109C536.854 40.5107 536.85 40.5103 536.846 40.5098C536.837 40.5089 536.822 40.5074 536.804 40.5059C536.786 40.5043 536.762 40.5026 536.734 40.5012C536.706 40.4998 536.673 40.4988 536.636 40.4988V44.4988ZM536.636 44.4988C545.079 44.4988 551.924 51.3433 551.924 59.7864H555.924C555.924 49.1342 547.288 40.4988 536.636 40.4988V44.4988ZM551.924 59.7864C551.924 68.2295 545.079 75.074 536.636 75.074V79.074C547.288 79.074 555.924 70.4386 555.924 59.7864H551.924ZM536.636 75.074C535.251 75.074 533.913 74.8905 532.642 74.5475L531.6 78.4094C533.208 78.8432 534.896 79.074 536.636 79.074V75.074ZM519.348 84.1162C524.993 84.1162 530.074 81.6887 533.598 77.8267L530.644 75.1303C527.845 78.1968 523.822 80.1162 519.348 80.1162V84.1162ZM503.095 75.218C506.52 80.5651 512.519 84.1162 519.348 84.1162V80.1162C513.939 80.1162 509.184 77.3082 506.464 73.0608L503.095 75.218ZM497.739 77.6334C500.533 77.6334 503.193 77.0381 505.595 75.9656L503.964 72.3131C502.065 73.161 499.96 73.6334 497.739 73.6334V77.6334ZM478.451 58.3458C478.451 68.998 487.087 77.6334 497.739 77.6334V73.6334C489.296 73.6334 482.451 66.7889 482.451 58.3458H478.451ZM497.739 39.0582C487.087 39.0582 478.451 47.6935 478.451 58.3458H482.451C482.451 49.9027 489.296 43.0582 497.739 43.0582V39.0582ZM502.584 39.6724C501.034 39.2711 499.41 39.0582 497.739 39.0582V43.0582C499.069 43.0582 500.356 43.2275 501.582 43.5448L502.584 39.6724ZM519.348 23.2112C509.028 23.2112 500.603 31.3149 500.086 41.5073L504.08 41.7099C504.49 33.6343 511.17 27.2112 519.348 27.2112V23.2112ZM538.636 42.4988C538.636 31.8465 530 23.2112 519.348 23.2112V27.2112C527.791 27.2112 534.636 34.0557 534.636 42.4988H538.636Z" fill="black" mask="url(#path-29-inside-2)"/>
<mask id="path-31-inside-3" fill="white">
<path fill-rule="evenodd" clip-rule="evenodd" d="M399.256 155.695C399.914 155.287 400.57 154.855 401.223 154.401C411.055 147.549 416.265 138.031 412.857 133.141C409.45 128.252 398.717 129.843 388.884 136.695C384.208 139.953 380.577 143.815 378.422 147.495C377.334 148.587 376.709 150.132 376.517 151.987C375.988 154.125 376.119 156.058 377.017 157.591C378.02 161.71 380.336 166.411 383.796 170.856C391.183 180.348 400.984 185.076 405.687 181.416C410.39 177.755 408.214 167.093 400.827 157.601C400.314 156.942 399.79 156.306 399.256 155.695Z"/>
</mask>
<path fill-rule="evenodd" clip-rule="evenodd" d="M399.256 155.695C399.914 155.287 400.57 154.855 401.223 154.401C411.055 147.549 416.265 138.031 412.857 133.141C409.45 128.252 398.717 129.843 388.884 136.695C384.208 139.953 380.577 143.815 378.422 147.495C377.334 148.587 376.709 150.132 376.517 151.987C375.988 154.125 376.119 156.058 377.017 157.591C378.02 161.71 380.336 166.411 383.796 170.856C391.183 180.348 400.984 185.076 405.687 181.416C410.39 177.755 408.214 167.093 400.827 157.601C400.314 156.942 399.79 156.306 399.256 155.695Z" fill="#FB983D"/>
<path d="M401.223 154.401L400.079 152.76L400.079 152.76L401.223 154.401ZM399.256 155.695L398.202 153.995L396.202 155.235L397.749 157.009L399.256 155.695ZM412.857 133.141L414.498 131.998L414.498 131.998L412.857 133.141ZM388.884 136.695L390.028 138.335L390.028 138.335L388.884 136.695ZM378.422 147.495L379.838 148.907L380.019 148.726L380.148 148.506L378.422 147.495ZM376.517 151.987L378.458 152.467L378.492 152.332L378.506 152.193L376.517 151.987ZM377.017 157.591L378.961 157.118L378.891 156.833L378.743 156.58L377.017 157.591ZM383.796 170.856L385.374 169.628L385.374 169.628L383.796 170.856ZM405.687 181.416L404.459 179.837L405.687 181.416ZM400.827 157.601L402.405 156.373L402.405 156.373L400.827 157.601ZM400.079 152.76C399.456 153.194 398.83 153.606 398.202 153.995L400.31 157.394C400.998 156.968 401.685 156.517 402.366 156.042L400.079 152.76ZM411.216 134.285C412.25 135.768 412.244 138.432 410.251 142.075C408.323 145.598 404.797 149.472 400.079 152.76L402.366 156.042C407.481 152.478 411.476 148.167 413.759 143.995C415.977 139.944 416.872 135.404 414.498 131.998L411.216 134.285ZM390.028 138.335C394.746 135.048 399.601 133.082 403.574 132.493C407.682 131.884 410.183 132.801 411.216 134.285L414.498 131.998C412.125 128.592 407.556 127.859 402.987 128.537C398.283 129.234 392.855 131.49 387.741 135.054L390.028 138.335ZM380.148 148.506C382.131 145.12 385.543 141.461 390.028 138.335L387.741 135.054C382.873 138.446 379.023 142.511 376.696 146.485L380.148 148.506ZM378.506 152.193C378.665 150.654 379.161 149.587 379.838 148.907L377.006 146.083C375.507 147.586 374.752 149.61 374.527 151.781L378.506 152.193ZM378.743 156.58C378.19 155.636 378.01 154.279 378.458 152.467L374.575 151.507C373.966 153.97 374.049 156.481 375.291 158.602L378.743 156.58ZM385.374 169.628C382.056 165.364 379.885 160.915 378.961 157.118L375.074 158.064C376.155 162.505 378.617 167.458 382.217 172.084L385.374 169.628ZM404.459 179.837C403.035 180.946 400.372 181.078 396.617 179.267C392.988 177.516 388.92 174.184 385.374 169.628L382.217 172.084C386.059 177.02 390.585 180.798 394.879 182.869C399.048 184.88 403.637 185.546 406.916 182.994L404.459 179.837ZM399.249 158.829C402.795 163.386 405.026 168.147 405.832 172.095C406.665 176.18 405.883 178.729 404.459 179.837L406.916 182.994C410.195 180.442 410.676 175.83 409.751 171.295C408.797 166.624 406.247 161.309 402.405 156.373L399.249 158.829ZM397.749 157.009C398.258 157.593 398.759 158.2 399.249 158.829L402.405 156.373C401.87 155.685 401.322 155.02 400.764 154.38L397.749 157.009Z" fill="#062C11" mask="url(#path-31-inside-3)"/>
<mask id="path-33-inside-4" fill="white">
<path fill-rule="evenodd" clip-rule="evenodd" d="M353.407 149.919C352.871 149.36 352.342 148.78 351.823 148.178C343.997 139.101 341.311 128.589 345.825 124.697C350.338 120.805 360.341 125.008 368.168 134.085C371.89 138.401 374.449 143.043 375.624 147.143C376.408 148.47 376.63 150.121 376.356 151.966C376.338 154.168 375.731 156.009 374.481 157.272C372.488 161.013 369.078 164.993 364.625 168.441C355.114 175.804 344.446 177.953 340.798 173.241C337.15 168.529 341.902 158.74 351.413 151.376C352.073 150.865 352.739 150.379 353.407 149.919Z"/>
</mask>
<path fill-rule="evenodd" clip-rule="evenodd" d="M353.407 149.919C352.871 149.36 352.342 148.78 351.823 148.178C343.997 139.101 341.311 128.589 345.825 124.697C350.338 120.805 360.341 125.008 368.168 134.085C371.89 138.401 374.449 143.043 375.624 147.143C376.408 148.47 376.63 150.121 376.356 151.966C376.338 154.168 375.731 156.009 374.481 157.272C372.488 161.013 369.078 164.993 364.625 168.441C355.114 175.804 344.446 177.953 340.798 173.241C337.15 168.529 341.902 158.74 351.413 151.376C352.073 150.865 352.739 150.379 353.407 149.919Z" fill="#FB983D"/>
<path d="M351.823 148.178L350.309 149.484L351.823 148.178ZM353.407 149.919L354.85 148.533L356.48 150.231L354.541 151.566L353.407 149.919ZM345.825 124.697L344.519 123.182L344.519 123.182L345.825 124.697ZM368.168 134.085L366.653 135.391L368.168 134.085ZM375.624 147.143L373.902 148.159L373.772 147.94L373.702 147.694L375.624 147.143ZM376.356 151.966L374.356 151.949L374.357 151.81L374.378 151.672L376.356 151.966ZM374.481 157.272L372.716 156.332L372.854 156.073L373.06 155.864L374.481 157.272ZM364.625 168.441L365.849 170.022L365.849 170.022L364.625 168.441ZM340.798 173.241L342.379 172.017L340.798 173.241ZM351.413 151.376L350.188 149.795L350.188 149.795L351.413 151.376ZM353.338 146.872C353.834 147.447 354.339 148.001 354.85 148.533L351.965 151.304C351.404 150.72 350.851 150.113 350.309 149.484L353.338 146.872ZM347.131 126.212C345.761 127.392 345.106 129.974 346.134 133.998C347.128 137.889 349.583 142.517 353.338 146.872L350.309 149.484C346.238 144.763 343.436 139.596 342.259 134.988C341.116 130.513 341.375 125.893 344.519 123.182L347.131 126.212ZM366.653 135.391C362.898 131.035 358.681 127.927 354.979 126.372C351.15 124.763 348.5 125.031 347.131 126.212L344.519 123.182C347.662 120.471 352.27 120.895 356.528 122.684C360.913 124.526 365.611 128.057 369.682 132.778L366.653 135.391ZM373.702 147.694C372.621 143.922 370.223 139.531 366.653 135.391L369.682 132.778C373.557 137.272 376.278 142.165 377.547 146.592L373.702 147.694ZM374.378 151.672C374.605 150.142 374.39 148.986 373.902 148.159L377.347 146.126C378.425 147.954 378.655 150.101 378.334 152.259L374.378 151.672ZM373.06 155.864C373.831 155.086 374.341 153.816 374.356 151.949L378.356 151.982C378.335 154.52 377.632 156.932 375.902 158.679L373.06 155.864ZM363.4 166.859C367.672 163.552 370.878 159.781 372.716 156.332L376.246 158.212C374.098 162.246 370.484 166.433 365.849 170.022L363.4 166.859ZM342.379 172.017C343.484 173.444 346.031 174.232 350.118 173.409C354.068 172.613 358.835 170.394 363.4 166.859L365.849 170.022C360.903 173.851 355.582 176.388 350.908 177.33C346.371 178.244 341.76 177.751 339.217 174.466L342.379 172.017ZM352.637 152.957C348.072 156.492 344.73 160.551 342.97 164.176C341.149 167.927 341.275 170.59 342.379 172.017L339.217 174.466C336.673 171.18 337.35 166.593 339.372 162.429C341.454 158.141 345.243 153.624 350.188 149.795L352.637 152.957ZM354.541 151.566C353.904 152.005 353.268 152.469 352.637 152.957L350.188 149.795C350.878 149.261 351.574 148.753 352.273 148.271L354.541 151.566Z" fill="#062C11" mask="url(#path-33-inside-4)"/>
<path d="M380.959 154.49C380.026 161.902 378.526 168.499 376.871 173.168C376.041 175.511 375.189 177.315 374.381 178.489C373.977 179.078 373.614 179.461 373.311 179.681C373.013 179.896 372.841 179.908 372.762 179.898C372.683 179.888 372.519 179.834 372.284 179.552C372.045 179.264 371.789 178.802 371.543 178.132C371.051 176.794 370.674 174.835 370.451 172.359C370.005 167.426 370.189 160.662 371.123 153.251C372.056 145.839 373.556 139.241 375.211 134.572C376.041 132.23 376.893 130.425 377.7 129.251C378.105 128.663 378.468 128.279 378.771 128.059C379.068 127.844 379.24 127.833 379.32 127.843C379.399 127.853 379.563 127.906 379.798 128.189C380.037 128.477 380.293 128.938 380.539 129.608C381.03 130.946 381.408 132.906 381.631 135.381C382.077 140.314 381.893 147.078 380.959 154.49Z" fill="#FFF740" stroke="#062C11" stroke-width="2"/>
<mask id="path-36-inside-5" fill="white">
<path fill-rule="evenodd" clip-rule="evenodd" d="M329.598 196.45C329.837 196.068 330.069 195.673 330.293 195.268C333.669 189.156 333.942 182.841 330.903 181.162C327.864 179.484 322.664 183.077 319.288 189.189C317.682 192.095 316.779 195.047 316.599 197.525C316.311 198.376 316.382 199.346 316.76 200.366C317.034 201.618 317.6 202.594 318.463 203.164C320.047 205.059 322.468 206.92 325.42 208.353C331.723 211.413 338.063 211.361 339.579 208.238C341.095 205.115 337.214 200.102 330.91 197.042C330.472 196.83 330.035 196.632 329.598 196.45Z"/>
</mask>
<path fill-rule="evenodd" clip-rule="evenodd" d="M329.598 196.45C329.837 196.068 330.069 195.673 330.293 195.268C333.669 189.156 333.942 182.841 330.903 181.162C327.864 179.484 322.664 183.077 319.288 189.189C317.682 192.095 316.779 195.047 316.599 197.525C316.311 198.376 316.382 199.346 316.76 200.366C317.034 201.618 317.6 202.594 318.463 203.164C320.047 205.059 322.468 206.92 325.42 208.353C331.723 211.413 338.063 211.361 339.579 208.238C341.095 205.115 337.214 200.102 330.91 197.042C330.472 196.83 330.035 196.632 329.598 196.45Z" fill="#FB983D"/>
<path d="M330.293 195.268L332.044 196.235L332.044 196.235L330.293 195.268ZM329.598 196.45L327.902 195.391L326.655 197.387L328.827 198.295L329.598 196.45ZM319.288 189.189L317.537 188.222L317.537 188.222L319.288 189.189ZM316.599 197.525L318.494 198.167L318.576 197.925L318.594 197.67L316.599 197.525ZM316.76 200.366L318.713 199.938L318.684 199.802L318.635 199.671L316.76 200.366ZM318.463 203.164L319.997 201.881L319.809 201.657L319.565 201.495L318.463 203.164ZM325.42 208.353L324.546 210.152L324.546 210.152L325.42 208.353ZM339.579 208.238L341.378 209.111L341.378 209.111L339.579 208.238ZM330.91 197.042L331.783 195.243L331.783 195.243L330.91 197.042ZM328.543 194.301C328.336 194.675 328.122 195.039 327.902 195.391L331.295 197.509C331.553 197.097 331.803 196.671 332.044 196.235L328.543 194.301ZM329.936 182.913C330.43 183.186 331.106 184.146 331.006 186.466C330.911 188.649 330.114 191.456 328.543 194.301L332.044 196.235C333.849 192.967 334.875 189.561 335.002 186.639C335.122 183.854 334.415 180.817 331.87 179.412L329.936 182.913ZM321.038 190.156C322.61 187.312 324.561 185.142 326.359 183.9C328.269 182.579 329.442 182.64 329.936 182.913L331.87 179.412C329.325 178.006 326.378 179.024 324.085 180.609C321.678 182.272 319.342 184.955 317.537 188.222L321.038 190.156ZM318.594 197.67C318.749 195.532 319.546 192.858 321.038 190.156L317.537 188.222C315.819 191.333 314.809 194.563 314.605 197.381L318.594 197.67ZM318.635 199.671C318.368 198.95 318.392 198.467 318.494 198.167L314.705 196.884C314.23 198.286 314.396 199.742 314.884 201.061L318.635 199.671ZM319.565 201.495C319.27 201.301 318.916 200.863 318.713 199.938L314.806 200.794C315.152 202.373 315.929 203.888 317.361 204.833L319.565 201.495ZM326.293 206.554C323.548 205.221 321.369 203.522 319.997 201.881L316.928 204.447C318.725 206.596 321.387 208.619 324.546 210.152L326.293 206.554ZM337.78 207.365C337.535 207.869 336.611 208.595 334.278 208.614C332.085 208.632 329.228 207.978 326.293 206.554L324.546 210.152C327.915 211.787 331.38 212.638 334.311 212.614C337.103 212.591 340.107 211.73 341.378 209.111L337.78 207.365ZM330.036 198.841C332.972 200.266 335.253 202.106 336.595 203.841C338.024 205.685 338.024 206.86 337.78 207.365L341.378 209.111C342.649 206.492 341.468 203.599 339.758 201.392C337.963 199.074 335.152 196.878 331.783 195.243L330.036 198.841ZM328.827 198.295C329.229 198.463 329.632 198.645 330.036 198.841L331.783 195.243C331.312 195.014 330.841 194.802 330.37 194.605L328.827 198.295Z" fill="#062C11" mask="url(#path-36-inside-5)"/>
<mask id="path-38-inside-6" fill="white">
<path fill-rule="evenodd" clip-rule="evenodd" d="M304.149 205.231C303.725 205.077 303.3 204.909 302.873 204.728C296.447 201.999 292.338 197.195 293.695 194C295.052 190.804 301.362 190.427 307.789 193.156C310.845 194.455 313.377 196.222 315.047 198.062C315.797 198.554 316.339 199.36 316.67 200.395C317.227 201.55 317.384 202.669 317.056 203.65C316.977 206.118 316.219 209.076 314.779 212.024C311.703 218.32 306.681 222.189 303.561 220.665C300.442 219.141 300.406 212.802 303.482 206.506C303.695 206.069 303.918 205.643 304.149 205.231Z"/>
</mask>
<path fill-rule="evenodd" clip-rule="evenodd" d="M304.149 205.231C303.725 205.077 303.3 204.909 302.873 204.728C296.447 201.999 292.338 197.195 293.695 194C295.052 190.804 301.362 190.427 307.789 193.156C310.845 194.455 313.377 196.222 315.047 198.062C315.797 198.554 316.339 199.36 316.67 200.395C317.227 201.55 317.384 202.669 317.056 203.65C316.977 206.118 316.219 209.076 314.779 212.024C311.703 218.32 306.681 222.189 303.561 220.665C300.442 219.141 300.406 212.802 303.482 206.506C303.695 206.069 303.918 205.643 304.149 205.231Z" fill="#FB983D"/>
<path d="M302.873 204.728L303.655 202.888L302.873 204.728ZM304.149 205.231L304.831 203.351L307.044 204.154L305.894 206.207L304.149 205.231ZM307.789 193.156L308.571 191.316L307.789 193.156ZM315.047 198.062L313.95 199.735L313.737 199.595L313.565 199.406L315.047 198.062ZM316.67 200.395L314.869 201.263L314.808 201.138L314.766 201.005L316.67 200.395ZM317.056 203.65L315.057 203.586L315.066 203.293L315.159 203.015L317.056 203.65ZM314.779 212.024L316.576 212.902L314.779 212.024ZM303.482 206.506L301.685 205.628L301.685 205.628L303.482 206.506ZM303.655 202.888C304.049 203.055 304.441 203.209 304.831 203.351L303.467 207.111C303.009 206.945 302.55 206.764 302.091 206.569L303.655 202.888ZM295.536 194.782C295.315 195.301 295.376 196.474 296.885 198.239C298.306 199.899 300.664 201.617 303.655 202.888L302.091 206.569C298.656 205.11 295.747 203.062 293.846 200.839C292.033 198.721 290.718 195.894 291.854 193.218L295.536 194.782ZM307.007 194.997C304.016 193.727 301.142 193.222 298.961 193.353C296.643 193.491 295.757 194.262 295.536 194.782L291.854 193.218C292.991 190.542 295.939 189.526 298.722 189.36C301.641 189.185 305.135 189.856 308.571 191.316L307.007 194.997ZM313.565 199.406C312.125 197.818 309.848 196.204 307.007 194.997L308.571 191.316C311.842 192.705 314.63 194.626 316.528 196.718L313.565 199.406ZM314.766 201.005C314.531 200.273 314.215 199.908 313.95 199.735L316.143 196.389C317.38 197.2 318.147 198.447 318.575 199.785L314.766 201.005ZM315.159 203.015C315.271 202.68 315.28 202.117 314.869 201.263L318.472 199.526C319.175 200.984 319.497 202.657 318.952 204.285L315.159 203.015ZM312.982 211.146C314.321 208.405 314.989 205.724 315.057 203.586L319.055 203.714C318.965 206.513 318.117 209.747 316.576 212.902L312.982 211.146ZM304.439 218.868C304.943 219.114 306.118 219.116 307.966 217.693C309.704 216.354 311.549 214.078 312.982 211.146L316.576 212.902C314.932 216.266 312.729 219.073 310.407 220.862C308.195 222.566 305.299 223.74 302.683 222.462L304.439 218.868ZM305.279 207.383C303.847 210.315 303.186 213.17 303.198 215.364C303.211 217.697 303.935 218.622 304.439 218.868L302.683 222.462C300.068 221.184 299.214 218.178 299.198 215.386C299.182 212.455 300.041 208.992 301.685 205.628L305.279 207.383ZM305.894 206.207C305.682 206.588 305.476 206.98 305.279 207.383L301.685 205.628C301.915 205.157 302.155 204.699 302.404 204.254L305.894 206.207Z" fill="#062C11" mask="url(#path-38-inside-6)"/>
<path d="M319.331 200.665C320.743 204.76 321.649 208.564 321.981 211.392C322.148 212.815 322.163 213.936 322.051 214.705C321.994 215.091 321.913 215.333 321.842 215.468C321.838 215.475 321.835 215.482 321.831 215.488C321.825 215.485 321.818 215.482 321.811 215.479C321.672 215.417 321.458 215.276 321.176 215.007C320.613 214.47 319.934 213.579 319.188 212.356C317.705 209.924 316.072 206.371 314.66 202.277C313.247 198.182 312.342 194.378 312.01 191.55C311.842 190.127 311.827 189.006 311.94 188.237C311.996 187.851 312.077 187.609 312.148 187.474C312.152 187.467 312.156 187.46 312.159 187.454C312.165 187.457 312.172 187.46 312.179 187.463C312.319 187.525 312.532 187.666 312.814 187.935C313.377 188.471 314.057 189.363 314.802 190.586C316.285 193.018 317.918 196.571 319.331 200.665ZM321.785 215.556C321.785 215.555 321.785 215.554 321.787 215.553C321.786 215.555 321.785 215.556 321.785 215.556ZM321.906 215.512C321.909 215.512 321.91 215.512 321.91 215.512C321.91 215.512 321.909 215.512 321.906 215.512ZM312.206 187.386C312.206 187.387 312.205 187.388 312.203 187.389C312.205 187.387 312.206 187.386 312.206 187.386ZM312.084 187.43C312.082 187.43 312.08 187.43 312.08 187.43C312.08 187.43 312.082 187.43 312.084 187.43Z" fill="#FFF740" stroke="#062C11" stroke-width="2"/>
</svg>
