<svg width="121" height="17" viewBox="0 0 121 17" fill="none" xmlns="http://www.w3.org/2000/svg">
<path d="M29.3127 10.6128C29.3617 10.6128 29.4107 10.623 29.4596 10.6434C29.5086 10.6597 29.5555 10.6903 29.6004 10.7352L30.4205 11.5981C30.0614 12.0673 29.6106 12.4223 29.0679 12.663C28.5294 12.8996 27.8909 13.018 27.1524 13.018C26.4751 13.018 25.8672 12.9037 25.3286 12.6752C24.7941 12.4427 24.3392 12.1244 23.9639 11.7205C23.5926 11.3125 23.307 10.8311 23.1071 10.2762C22.9071 9.71723 22.8072 9.11135 22.8072 8.45855C22.8072 7.79351 22.9153 7.18355 23.1315 6.62867C23.3478 6.06971 23.6518 5.58827 24.0434 5.18435C24.4351 4.78043 24.9043 4.46627 25.451 4.24187C25.9977 4.01747 26.5996 3.90527 27.2564 3.90527C27.591 3.90527 27.9052 3.93587 28.1989 3.99707C28.4968 4.05419 28.7742 4.13579 29.0312 4.24187C29.2883 4.34387 29.5249 4.46831 29.7411 4.61519C29.9574 4.76207 30.1491 4.92119 30.3164 5.09255L29.6188 6.02891C29.5739 6.08603 29.5208 6.13907 29.4596 6.18803C29.3984 6.23291 29.3127 6.25535 29.2026 6.25535C29.1291 6.25535 29.0598 6.23903 28.9945 6.20639C28.9292 6.17375 28.8599 6.13499 28.7864 6.09011C28.713 6.04115 28.6314 5.99015 28.5416 5.93711C28.4559 5.87999 28.3519 5.82899 28.2295 5.78411C28.1112 5.73515 27.9704 5.69435 27.8072 5.66171C27.6481 5.62907 27.4604 5.61275 27.2442 5.61275C26.9015 5.61275 26.5873 5.67599 26.3017 5.80247C26.0202 5.92895 25.7754 6.11459 25.5673 6.35939C25.3633 6.60011 25.2042 6.89795 25.09 7.25291C24.9798 7.60379 24.9247 8.00567 24.9247 8.45855C24.9247 8.91551 24.9859 9.32147 25.1083 9.67643C25.2348 10.0314 25.4041 10.3313 25.6163 10.5761C25.8325 10.8168 26.0834 11.0004 26.369 11.1269C26.6546 11.2534 26.9606 11.3166 27.287 11.3166C27.4747 11.3166 27.6461 11.3084 27.8011 11.2921C27.9561 11.2717 28.101 11.2411 28.2356 11.2003C28.3703 11.1554 28.4967 11.0983 28.6151 11.029C28.7334 10.9555 28.8538 10.8637 28.9762 10.7536C29.0251 10.7128 29.0781 10.6801 29.1353 10.6556C29.1924 10.6271 29.2515 10.6128 29.3127 10.6128Z" fill="#19191A"/>
<path d="M34.8363 8.19539C35.1179 8.19539 35.3565 8.16071 35.5524 8.09135C35.7523 8.01791 35.9155 7.91795 36.042 7.79147C36.1685 7.66499 36.2603 7.51811 36.3174 7.35083C36.3745 7.17947 36.4031 6.99587 36.4031 6.80003C36.4031 6.40835 36.2745 6.10235 36.0175 5.88203C35.7645 5.66171 35.3708 5.55155 34.8363 5.55155H34.004V8.19539H34.8363ZM39.2305 12.92H37.3578C37.011 12.92 36.7621 12.7895 36.6111 12.5284L35.1301 9.93959C35.0607 9.82943 34.9832 9.74987 34.8975 9.70091C34.8119 9.64787 34.6895 9.62135 34.5303 9.62135H34.004V12.92H31.9355V4.00319H34.8363C35.481 4.00319 36.0297 4.07051 36.4826 4.20515C36.9396 4.33571 37.3109 4.51931 37.5965 4.75595C37.8861 4.99259 38.0963 5.27207 38.2268 5.59439C38.3574 5.91671 38.4227 6.26759 38.4227 6.64703C38.4227 6.93671 38.3839 7.21007 38.3064 7.46711C38.2289 7.72415 38.1146 7.96283 37.9637 8.18315C37.8127 8.39939 37.625 8.59319 37.4006 8.76455C37.1803 8.93591 36.9253 9.07667 36.6356 9.18683C36.7703 9.25619 36.8967 9.34391 37.0151 9.44999C37.1334 9.55199 37.2395 9.67439 37.3333 9.81719L39.2305 12.92Z" fill="#19191A"/>
<path d="M42.6727 5.59439V7.67519H45.4757V9.20519H42.6727V11.3288H46.3325V12.92H40.5919V4.00319H46.3325V5.59439H42.6727Z" fill="#19191A"/>
<path d="M52.9328 9.51119L52.1066 7.06931C52.0454 6.91427 51.9801 6.73271 51.9108 6.52463C51.8414 6.31247 51.772 6.08399 51.7027 5.83919C51.6415 6.08807 51.5762 6.31859 51.5068 6.53075C51.4375 6.74291 51.3722 6.92651 51.311 7.08155L50.4909 9.51119H52.9328ZM56.2192 12.92H54.6158C54.4363 12.92 54.2914 12.8792 54.1813 12.7976C54.0711 12.712 53.9875 12.6038 53.9304 12.4733L53.404 10.9188H50.0136L49.4872 12.4733C49.4424 12.5875 49.3608 12.6916 49.2424 12.7854C49.1282 12.8752 48.9854 12.92 48.814 12.92H47.1984L50.65 4.00319H52.7676L56.2192 12.92Z" fill="#19191A"/>
<path d="M63.0693 5.64335H60.5601V12.92H58.4916V5.64335H55.9824V4.00319H63.0693V5.64335Z" fill="#19191A"/>
<path d="M66.8132 12.92H64.7324V4.00319H66.8132V12.92Z" fill="#19191A"/>
<path d="M77.1444 4.00319L73.5703 12.92H71.6976L68.1235 4.00319H69.7881C69.9676 4.00319 70.1125 4.04603 70.2226 4.13171C70.3328 4.21331 70.4165 4.31939 70.4736 4.44995L72.1994 9.22355C72.281 9.43163 72.3606 9.66011 72.4381 9.90899C72.5156 10.1538 72.589 10.4108 72.6584 10.6801C72.7155 10.4108 72.7788 10.1538 72.8481 9.90899C72.9216 9.66011 72.9991 9.43163 73.0807 9.22355L74.7943 4.44995C74.8392 4.33571 74.9187 4.23371 75.033 4.14395C75.1513 4.05011 75.2961 4.00319 75.4675 4.00319H77.1444Z" fill="#19191A"/>
<path d="M80.5402 5.59439V7.67519H83.3432V9.20519H80.5402V11.3288H84.2V12.92H78.4594V4.00319H84.2V5.59439H80.5402Z" fill="#19191A"/>
<path d="M94.9061 11.2676V12.92H89.5328V4.00319H91.6013V11.2676H94.9061Z" fill="#19191A"/>
<path d="M101.288 9.51119L100.462 7.06931C100.401 6.91427 100.335 6.73271 100.266 6.52463C100.197 6.31247 100.127 6.08399 100.058 5.83919C99.9966 6.08807 99.9314 6.31859 99.862 6.53075C99.7926 6.74291 99.7274 6.92651 99.6662 7.08155L98.8461 9.51119H101.288ZM104.574 12.92H102.971C102.791 12.92 102.647 12.8792 102.536 12.7976C102.426 12.712 102.343 12.6038 102.286 12.4733L101.759 10.9188H98.3687L97.8424 12.4733C97.7975 12.5875 97.7159 12.6916 97.5976 12.7854C97.4834 12.8752 97.3406 12.92 97.1692 12.92H95.5535L99.0052 4.00319H101.123L104.574 12.92Z" fill="#19191A"/>
<path d="M109.415 11.3594C109.688 11.3594 109.91 11.3248 110.082 11.2554C110.257 11.186 110.394 11.0963 110.492 10.9861C110.59 10.876 110.657 10.7515 110.694 10.6128C110.73 10.4741 110.749 10.3333 110.749 10.1905C110.749 10.0273 110.726 9.88043 110.681 9.74987C110.641 9.61931 110.567 9.50915 110.461 9.41939C110.359 9.32963 110.222 9.26027 110.051 9.21131C109.88 9.16235 109.663 9.13787 109.402 9.13787H107.958V11.3594H109.415ZM107.958 5.55155V7.75475H109.035C109.264 7.75475 109.47 7.73843 109.653 7.70579C109.837 7.67315 109.992 7.61603 110.118 7.53443C110.249 7.45283 110.347 7.34063 110.412 7.19783C110.481 7.05503 110.516 6.87551 110.516 6.65927C110.516 6.44711 110.49 6.27167 110.437 6.13295C110.384 5.99015 110.302 5.87591 110.192 5.79023C110.082 5.70455 109.941 5.64335 109.77 5.60663C109.602 5.56991 109.402 5.55155 109.17 5.55155H107.958ZM109.17 4.00319C109.786 4.00319 110.31 4.06031 110.743 4.17455C111.175 4.28879 111.528 4.44995 111.801 4.65803C112.075 4.86611 112.273 5.11907 112.395 5.41691C112.521 5.71475 112.585 6.04727 112.585 6.41447C112.585 6.61439 112.556 6.80819 112.499 6.99587C112.442 7.17947 112.352 7.35287 112.23 7.51607C112.107 7.67519 111.95 7.82207 111.759 7.95671C111.567 8.09135 111.336 8.20763 111.067 8.30555C111.654 8.44835 112.089 8.67887 112.371 8.99711C112.652 9.31535 112.793 9.72743 112.793 10.2334C112.793 10.6128 112.719 10.9657 112.572 11.2921C112.426 11.6185 112.209 11.9041 111.924 12.1489C111.642 12.3896 111.293 12.5794 110.877 12.7181C110.461 12.8527 109.986 12.92 109.451 12.92H105.889V4.00319H109.17Z" fill="#19191A"/>
<path d="M119.628 5.81471C119.567 5.91263 119.501 5.98607 119.432 6.03503C119.367 6.08399 119.281 6.10847 119.175 6.10847C119.081 6.10847 118.979 6.07991 118.869 6.02279C118.763 5.96159 118.641 5.89427 118.502 5.82083C118.367 5.74739 118.212 5.68211 118.037 5.62499C117.861 5.56379 117.661 5.53319 117.437 5.53319C117.049 5.53319 116.76 5.61683 116.568 5.78411C116.38 5.94731 116.286 6.16967 116.286 6.45119C116.286 6.63071 116.343 6.77963 116.458 6.89795C116.572 7.01627 116.721 7.11827 116.904 7.20395C117.092 7.28963 117.304 7.36919 117.541 7.44263C117.782 7.51199 118.026 7.59155 118.275 7.68131C118.524 7.76699 118.767 7.86899 119.004 7.98731C119.244 8.10563 119.457 8.25659 119.64 8.44019C119.828 8.62379 119.979 8.84819 120.093 9.11339C120.207 9.37451 120.264 9.69071 120.264 10.062C120.264 10.4741 120.193 10.8596 120.05 11.2187C119.907 11.5777 119.699 11.8919 119.426 12.1612C119.157 12.4264 118.822 12.6365 118.422 12.7915C118.026 12.9425 117.576 13.018 117.07 13.018C116.792 13.018 116.509 12.9894 116.219 12.9323C115.933 12.8752 115.656 12.7956 115.387 12.6936C115.117 12.5875 114.864 12.4631 114.628 12.3203C114.391 12.1775 114.185 12.0184 114.01 11.8429L114.622 10.876C114.671 10.8066 114.734 10.7495 114.811 10.7046C114.893 10.6556 114.981 10.6312 115.075 10.6312C115.197 10.6312 115.319 10.6699 115.442 10.7474C115.568 10.825 115.709 10.9106 115.864 11.0045C116.023 11.0983 116.205 11.184 116.409 11.2615C116.613 11.339 116.853 11.3778 117.131 11.3778C117.506 11.3778 117.798 11.2962 118.006 11.133C118.214 10.9657 118.318 10.7026 118.318 10.3435C118.318 10.1354 118.261 9.96611 118.147 9.83555C118.033 9.70499 117.882 9.59687 117.694 9.51119C117.51 9.42551 117.3 9.35003 117.064 9.28475C116.827 9.21947 116.584 9.14807 116.335 9.07055C116.086 8.98895 115.844 8.89103 115.607 8.77679C115.37 8.65847 115.158 8.50547 114.971 8.31779C114.787 8.12603 114.638 7.88939 114.524 7.60787C114.41 7.32227 114.352 6.97139 114.352 6.55523C114.352 6.22067 114.42 5.89427 114.554 5.57603C114.689 5.25779 114.887 4.97423 115.148 4.72535C115.409 4.47647 115.729 4.27859 116.109 4.13171C116.488 3.98075 116.923 3.90527 117.412 3.90527C117.686 3.90527 117.951 3.92771 118.208 3.97259C118.469 4.01339 118.716 4.07663 118.949 4.16231C119.181 4.24391 119.397 4.34387 119.597 4.46219C119.801 4.57643 119.983 4.70699 120.142 4.85387L119.628 5.81471Z" fill="#19191A"/>
<path fill-rule="evenodd" clip-rule="evenodd" d="M8.5 15.98C12.6311 15.98 15.98 12.6311 15.98 8.5C15.98 4.36891 12.6311 1.02 8.5 1.02C4.36891 1.02 1.02 4.36891 1.02 8.5C1.02 12.6311 4.36891 15.98 8.5 15.98ZM8.5 17C13.1944 17 17 13.1944 17 8.5C17 3.80558 13.1944 0 8.5 0C3.80558 0 0 3.80558 0 8.5C0 13.1944 3.80558 17 8.5 17Z" fill="#19191A"/>
<path d="M11.6697 8.59915C12.2635 8.59915 12.7579 9.08729 12.6199 9.66483C12.1398 11.6744 10.3321 13.1686 8.17543 13.1686C5.65181 13.1686 3.60602 11.1228 3.60602 8.59915C3.60602 6.44247 5.10014 4.63476 7.10975 4.15467C7.68729 4.0167 8.17543 4.5111 8.17543 5.10489V7.52399C8.17543 8.11779 8.6568 8.59915 9.25059 8.59915H11.6697Z" fill="#19191A"/>
<path fill-rule="evenodd" clip-rule="evenodd" d="M9.72576 3.60596C9.13158 3.60596 8.6499 4.08764 8.6499 4.68182V7.04871C8.6499 7.64289 9.13158 8.12457 9.72576 8.12457H12.0927C12.6868 8.12457 13.1685 7.64289 13.1685 7.04871V6.94112C13.1685 6.34694 12.6868 5.86526 12.0927 5.86526H11.9851C11.3909 5.86526 10.9092 5.38358 10.9092 4.7894V4.68182C10.9092 4.08764 10.4275 3.60596 9.83335 3.60596H9.72576Z" fill="#19191A"/>
</svg>
